<svg width="116" height="103" viewBox="0 0 116 103" fill="none" xmlns="http://www.w3.org/2000/svg">
<g opacity="0.05" clip-path="url(#clip0_301_1493)">
<mask id="path-1-inside-1_301_1493" fill="white">
<path d="M93.6388 31.2572C96.7212 31.2394 99.7441 30.4063 102.4 28.8425C104.406 27.7072 106.157 26.1727 107.547 24.3339C108.936 22.495 109.933 20.3908 110.477 18.1513C110.588 17.657 110.508 17.1388 110.253 16.701C109.998 16.2632 109.587 15.9383 109.102 15.7916C106.885 15.1605 104.563 14.9907 102.278 15.2927C99.9934 15.5947 97.7949 16.362 95.8184 17.5472C94.08 18.5576 92.5251 19.8549 91.2197 21.3843C90.8381 19.4102 90.125 17.515 89.1105 15.779C87.9753 13.7734 86.4409 12.0218 84.602 10.6327C82.7631 9.24353 80.6589 8.24626 78.4193 7.70249C77.9251 7.59096 77.4069 7.67078 76.9691 7.92589C76.5313 8.18099 76.2064 8.59245 76.0597 9.07746C75.4287 11.294 75.259 13.6164 75.561 15.9011C75.863 18.1858 76.6304 20.3843 77.8156 22.3608C79.7744 25.7844 82.8544 28.4273 86.5358 29.8435C85.8848 33.3741 84.8783 39.586 84.043 48.0144C83.3225 46.7016 82.4701 45.4655 81.4992 44.3254C77.696 39.8602 72.3736 37.1606 66.8971 36.9186C66.391 36.8965 65.8952 37.0669 65.5096 37.3954C65.1239 37.7239 64.8768 38.1862 64.8181 38.6894C64.1858 44.1351 66.0043 49.8188 69.8076 54.2838C73.1468 58.2847 77.8668 60.8856 83.0327 61.5716C82.7947 66.2276 82.6402 71.3745 82.6316 76.9332C81.8667 75.818 81.0011 74.7753 80.0457 73.8184C75.8984 69.6711 70.3806 67.409 64.899 67.6006C64.3926 67.6187 63.9119 67.828 63.5536 68.1863C63.1953 68.5446 62.986 69.0253 62.9679 69.5317C62.772 75.01 65.0384 80.5308 69.1859 84.6783C72.8262 88.3928 77.7263 90.6082 82.9196 90.8877C83.0859 94.7736 83.3353 98.7898 83.6678 102.936H32.9328C33.2717 98.7946 33.5211 94.7785 33.681 90.8877C38.8742 90.608 43.7742 88.3926 47.4147 84.6783C51.5622 80.5308 53.8286 75.01 53.6327 69.5317C53.6146 69.0253 53.4053 68.5446 53.047 68.1863C52.6887 67.828 52.208 67.6187 51.7016 67.6006C46.2236 67.4084 40.7024 69.6714 36.5549 73.8184C35.5995 74.7753 34.7339 75.818 33.969 76.9332C33.9604 71.3745 33.8059 66.2276 33.5679 61.5716C38.7338 60.8857 43.4538 58.2848 46.7931 54.2839C50.5964 49.8189 52.4149 44.135 51.7826 38.6896C51.7244 38.1862 51.4775 37.7235 51.0917 37.3949C50.7059 37.0663 50.2099 36.8961 49.7036 36.9188C44.2271 37.1607 38.9045 39.8603 35.1015 44.3255C34.1305 45.4657 33.2782 46.7017 32.5577 48.0145C31.7223 39.5861 30.7159 33.3742 30.0649 29.8436C33.7462 28.4275 36.8263 25.7845 38.7851 22.3609C39.9703 20.3844 40.7376 18.1859 41.0396 15.9012C41.3416 13.6164 41.1718 11.294 40.5408 9.07746C40.3942 8.59238 40.0693 8.18083 39.6315 7.92569C39.1937 7.67054 38.6754 7.59074 38.1811 7.70235C35.9416 8.24612 33.8373 9.2434 31.9985 10.6326C30.1596 12.0217 28.6251 13.7732 27.4899 15.7789C26.4755 17.5148 25.7624 19.4101 25.3807 21.3842C24.0754 19.8548 22.5205 18.5574 20.782 17.5471C18.8055 16.3619 16.607 15.5946 14.3223 15.2927C12.0376 14.9907 9.7152 15.1605 7.49868 15.7915C7.01368 15.9381 6.60223 16.2631 6.34714 16.7009C6.09205 17.1387 6.01224 17.6569 6.12379 18.1511C6.66753 20.3907 7.66476 22.4949 9.05386 24.3338C10.443 26.1727 12.1944 27.7072 14.2 28.8425C16.8562 30.4064 19.879 31.2395 22.9614 31.2572C24.0439 31.2563 25.1235 31.1442 26.1832 30.9228C26.8076 34.3668 27.7415 40.2051 28.5218 47.9314C27.6797 46.8972 26.7457 45.9414 25.7312 45.0757C21.266 41.2726 15.5838 39.4543 10.1366 40.0862C9.63329 40.1446 9.17075 40.3916 8.84217 40.7773C8.51359 41.163 8.34336 41.659 8.36577 42.1652C8.60802 47.6419 11.3078 52.964 15.7728 56.7673C19.5101 60.0098 24.2764 61.8214 29.224 61.88C29.3394 61.88 29.4546 61.8722 29.57 61.8701C29.8067 66.5273 29.9584 71.6832 29.9613 77.2556C29.1436 76.0185 28.2033 74.867 27.1548 73.8185C23.0077 69.6712 17.4892 67.4091 12.0081 67.6007C11.5018 67.6188 11.021 67.8281 10.6627 68.1864C10.3044 68.5447 10.0952 69.0254 10.0771 69.5318C9.88111 75.0098 12.1475 80.5307 16.295 84.6784C19.8505 88.3025 24.6062 90.5046 29.6699 90.8715C29.5015 94.7607 29.2482 98.7822 28.9102 102.936H17.56C17.056 102.936 16.5705 103.126 16.2003 103.468C15.83 103.81 15.6023 104.279 15.5624 104.781L14.5804 117.132C13.4026 131.672 17.8484 146.111 27.0013 157.471L32.6353 164.485C32.8231 164.718 33.061 164.907 33.3314 165.037C33.6018 165.166 33.8978 165.234 34.1976 165.234H82.4029C82.7027 165.234 82.9988 165.166 83.2691 165.037C83.5395 164.907 83.7774 164.718 83.9652 164.485L89.5992 157.471C98.7522 146.111 103.198 131.672 102.02 117.131L101.038 104.782C100.998 104.279 100.77 103.81 100.4 103.468C100.03 103.126 99.5445 102.936 99.0405 102.936H87.6899C87.3467 98.7982 87.0931 94.7766 86.9292 90.8718C91.9933 90.505 96.7495 88.3029 100.305 84.6787C104.453 80.531 106.719 75.0101 106.523 69.5321C106.505 69.0257 106.296 68.5449 105.938 68.1866C105.579 67.8283 105.099 67.6191 104.592 67.601C99.1144 67.4088 93.5931 69.6717 89.4457 73.8187C88.3975 74.8667 87.4576 76.0176 86.6401 77.254C86.6453 71.7615 86.7975 66.6161 87.0426 61.8707C87.1539 61.8727 87.2649 61.8803 87.3762 61.8803C92.3237 61.8216 97.09 60.0099 100.827 56.7676C105.292 52.9643 107.992 47.6422 108.234 42.1655C108.257 41.6592 108.087 41.1633 107.758 40.7776C107.429 40.3918 106.967 40.1449 106.464 40.0865C101.018 39.4538 95.3342 41.2729 90.869 45.0759C89.8637 45.934 88.9374 46.8805 88.1013 47.9041C88.8813 40.1738 89.8042 34.3565 90.4214 30.9239C91.4797 31.1447 92.5578 31.2564 93.6388 31.2572ZM39.3891 76.6527C42.1077 73.8741 45.6995 72.1155 49.5615 71.672C49.0767 75.5218 47.3243 79.1007 44.5805 81.8443C41.8368 84.588 38.2579 86.3404 34.4081 86.8251C34.852 82.9632 36.6107 79.3715 39.3891 76.6527ZM38.1525 46.9243C40.641 43.9379 44.081 41.8982 47.8952 41.1476C47.7191 45.0238 46.2579 48.7311 43.7418 51.685C41.2258 54.6389 37.7981 56.6713 33.9993 57.4617C34.1334 53.5767 35.5998 49.8561 38.1525 46.9243ZM30.953 17.7969C32.3577 15.3316 34.5187 13.3839 37.1163 12.2421C37.3757 15.0634 36.7484 17.8952 35.3219 20.3431C33.8954 22.7909 31.7408 24.7327 29.1584 25.8979C28.8712 23.0749 29.5004 20.2345 30.953 17.7969ZM16.218 25.3796C13.7528 23.9747 11.8052 21.8135 10.6635 19.2159C13.4847 18.9566 16.3165 19.5838 18.7643 21.0103C21.2121 22.4368 23.1539 24.5914 24.3191 27.1738C21.4961 27.4616 18.6555 26.8324 16.218 25.3796ZM18.3718 53.7162C15.3853 51.2278 13.3456 47.7878 12.595 43.9735C16.4712 44.1496 20.1786 45.6108 23.1325 48.1268C26.0864 50.6429 28.1188 54.0705 28.9093 57.8694C25.0242 57.7354 21.3036 56.2689 18.3718 53.7162ZM19.1294 81.8444C16.351 79.1256 14.5922 75.5339 14.1483 71.672C17.9981 72.1567 21.577 73.9091 24.3207 76.6527C27.0645 79.3964 28.8169 82.9753 29.3017 86.8251C25.4398 86.3814 21.8481 84.6228 19.1294 81.8444ZM86.4746 154.961L81.4425 161.226H35.1583L30.1261 154.961C22.0155 144.894 17.8677 132.208 18.4646 119.294H98.1361C98.7329 132.208 94.5852 144.894 86.4746 154.961ZM97.853 115.286H18.7476L19.4109 106.944H30.7482H30.753H30.7553H85.8453H85.8476H85.8525H97.1896L97.853 115.286ZM93.4682 48.1269C96.3999 45.5741 100.121 44.1076 104.006 43.9735C103.215 47.7724 101.183 51.2 98.229 53.7161C95.2751 56.2321 91.5677 57.6933 87.6915 57.8693C88.4421 54.0552 90.4818 50.6153 93.4682 48.1269ZM97.8364 21.0102C100.274 19.5578 103.114 18.9287 105.937 19.2161C104.772 21.7986 102.83 23.9532 100.383 25.3796C97.9347 26.806 95.1028 27.4332 92.2816 27.1737C93.4234 24.5761 95.3711 22.4151 97.8364 21.0102ZM81.2786 20.3431C79.8261 17.9055 79.197 15.065 79.4842 12.2421C82.0667 13.4072 84.2213 15.349 85.6478 17.7969C87.0743 20.2447 87.7015 23.0766 87.4422 25.8979C84.8444 24.7562 82.6833 22.8086 81.2786 20.3431ZM72.8588 51.6849C70.3061 48.7531 68.8396 45.0325 68.7054 41.1474C72.5043 41.9378 75.932 43.9702 78.448 46.9242C80.9641 49.8781 82.4253 53.5855 82.6012 57.4617C78.787 56.7111 75.3472 54.6714 72.8588 51.6849ZM72.0201 81.8442C69.2417 79.1255 67.483 75.5338 67.039 71.672C70.8888 72.1567 74.4677 73.9091 77.2115 76.6527C79.9552 79.3964 81.7076 82.9753 82.1924 86.8251C78.3305 86.3814 74.7389 84.6226 72.0201 81.8442ZM92.2799 76.6526C94.9985 73.8741 98.5903 72.1155 102.452 71.672C101.967 75.5218 100.215 79.1006 97.4713 81.8443C94.7275 84.588 91.1486 86.3404 87.2988 86.8251C87.7427 82.9632 89.5015 79.3713 92.2799 76.6526Z"/>
</mask>
<path d="M93.6388 31.2572C96.7212 31.2394 99.7441 30.4063 102.4 28.8425C104.406 27.7072 106.157 26.1727 107.547 24.3339C108.936 22.495 109.933 20.3908 110.477 18.1513C110.588 17.657 110.508 17.1388 110.253 16.701C109.998 16.2632 109.587 15.9383 109.102 15.7916C106.885 15.1605 104.563 14.9907 102.278 15.2927C99.9934 15.5947 97.7949 16.362 95.8184 17.5472C94.08 18.5576 92.5251 19.8549 91.2197 21.3843C90.8381 19.4102 90.125 17.515 89.1105 15.779C87.9753 13.7734 86.4409 12.0218 84.602 10.6327C82.7631 9.24353 80.6589 8.24626 78.4193 7.70249C77.9251 7.59096 77.4069 7.67078 76.9691 7.92589C76.5313 8.18099 76.2064 8.59245 76.0597 9.07746C75.4287 11.294 75.259 13.6164 75.561 15.9011C75.863 18.1858 76.6304 20.3843 77.8156 22.3608C79.7744 25.7844 82.8544 28.4273 86.5358 29.8435C85.8848 33.3741 84.8783 39.586 84.043 48.0144C83.3225 46.7016 82.4701 45.4655 81.4992 44.3254C77.696 39.8602 72.3736 37.1606 66.8971 36.9186C66.391 36.8965 65.8952 37.0669 65.5096 37.3954C65.1239 37.7239 64.8768 38.1862 64.8181 38.6894C64.1858 44.1351 66.0043 49.8188 69.8076 54.2838C73.1468 58.2847 77.8668 60.8856 83.0327 61.5716C82.7947 66.2276 82.6402 71.3745 82.6316 76.9332C81.8667 75.818 81.0011 74.7753 80.0457 73.8184C75.8984 69.6711 70.3806 67.409 64.899 67.6006C64.3926 67.6187 63.9119 67.828 63.5536 68.1863C63.1953 68.5446 62.986 69.0253 62.9679 69.5317C62.772 75.01 65.0384 80.5308 69.1859 84.6783C72.8262 88.3928 77.7263 90.6082 82.9196 90.8877C83.0859 94.7736 83.3353 98.7898 83.6678 102.936H32.9328C33.2717 98.7946 33.5211 94.7785 33.681 90.8877C38.8742 90.608 43.7742 88.3926 47.4147 84.6783C51.5622 80.5308 53.8286 75.01 53.6327 69.5317C53.6146 69.0253 53.4053 68.5446 53.047 68.1863C52.6887 67.828 52.208 67.6187 51.7016 67.6006C46.2236 67.4084 40.7024 69.6714 36.5549 73.8184C35.5995 74.7753 34.7339 75.818 33.969 76.9332C33.9604 71.3745 33.8059 66.2276 33.5679 61.5716C38.7338 60.8857 43.4538 58.2848 46.7931 54.2839C50.5964 49.8189 52.4149 44.135 51.7826 38.6896C51.7244 38.1862 51.4775 37.7235 51.0917 37.3949C50.7059 37.0663 50.2099 36.8961 49.7036 36.9188C44.2271 37.1607 38.9045 39.8603 35.1015 44.3255C34.1305 45.4657 33.2782 46.7017 32.5577 48.0145C31.7223 39.5861 30.7159 33.3742 30.0649 29.8436C33.7462 28.4275 36.8263 25.7845 38.7851 22.3609C39.9703 20.3844 40.7376 18.1859 41.0396 15.9012C41.3416 13.6164 41.1718 11.294 40.5408 9.07746C40.3942 8.59238 40.0693 8.18083 39.6315 7.92569C39.1937 7.67054 38.6754 7.59074 38.1811 7.70235C35.9416 8.24612 33.8373 9.2434 31.9985 10.6326C30.1596 12.0217 28.6251 13.7732 27.4899 15.7789C26.4755 17.5148 25.7624 19.4101 25.3807 21.3842C24.0754 19.8548 22.5205 18.5574 20.782 17.5471C18.8055 16.3619 16.607 15.5946 14.3223 15.2927C12.0376 14.9907 9.7152 15.1605 7.49868 15.7915C7.01368 15.9381 6.60223 16.2631 6.34714 16.7009C6.09205 17.1387 6.01224 17.6569 6.12379 18.1511C6.66753 20.3907 7.66476 22.4949 9.05386 24.3338C10.443 26.1727 12.1944 27.7072 14.2 28.8425C16.8562 30.4064 19.879 31.2395 22.9614 31.2572C24.0439 31.2563 25.1235 31.1442 26.1832 30.9228C26.8076 34.3668 27.7415 40.2051 28.5218 47.9314C27.6797 46.8972 26.7457 45.9414 25.7312 45.0757C21.266 41.2726 15.5838 39.4543 10.1366 40.0862C9.63329 40.1446 9.17075 40.3916 8.84217 40.7773C8.51359 41.163 8.34336 41.659 8.36577 42.1652C8.60802 47.6419 11.3078 52.964 15.7728 56.7673C19.5101 60.0098 24.2764 61.8214 29.224 61.88C29.3394 61.88 29.4546 61.8722 29.57 61.8701C29.8067 66.5273 29.9584 71.6832 29.9613 77.2556C29.1436 76.0185 28.2033 74.867 27.1548 73.8185C23.0077 69.6712 17.4892 67.4091 12.0081 67.6007C11.5018 67.6188 11.021 67.8281 10.6627 68.1864C10.3044 68.5447 10.0952 69.0254 10.0771 69.5318C9.88111 75.0098 12.1475 80.5307 16.295 84.6784C19.8505 88.3025 24.6062 90.5046 29.6699 90.8715C29.5015 94.7607 29.2482 98.7822 28.9102 102.936H17.56C17.056 102.936 16.5705 103.126 16.2003 103.468C15.83 103.81 15.6023 104.279 15.5624 104.781L14.5804 117.132C13.4026 131.672 17.8484 146.111 27.0013 157.471L32.6353 164.485C32.8231 164.718 33.061 164.907 33.3314 165.037C33.6018 165.166 33.8978 165.234 34.1976 165.234H82.4029C82.7027 165.234 82.9988 165.166 83.2691 165.037C83.5395 164.907 83.7774 164.718 83.9652 164.485L89.5992 157.471C98.7522 146.111 103.198 131.672 102.02 117.131L101.038 104.782C100.998 104.279 100.77 103.81 100.4 103.468C100.03 103.126 99.5445 102.936 99.0405 102.936H87.6899C87.3467 98.7982 87.0931 94.7766 86.9292 90.8718C91.9933 90.505 96.7495 88.3029 100.305 84.6787C104.453 80.531 106.719 75.0101 106.523 69.5321C106.505 69.0257 106.296 68.5449 105.938 68.1866C105.579 67.8283 105.099 67.6191 104.592 67.601C99.1144 67.4088 93.5931 69.6717 89.4457 73.8187C88.3975 74.8667 87.4576 76.0176 86.6401 77.254C86.6453 71.7615 86.7975 66.6161 87.0426 61.8707C87.1539 61.8727 87.2649 61.8803 87.3762 61.8803C92.3237 61.8216 97.09 60.0099 100.827 56.7676C105.292 52.9643 107.992 47.6422 108.234 42.1655C108.257 41.6592 108.087 41.1633 107.758 40.7776C107.429 40.3918 106.967 40.1449 106.464 40.0865C101.018 39.4538 95.3342 41.2729 90.869 45.0759C89.8637 45.934 88.9374 46.8805 88.1013 47.9041C88.8813 40.1738 89.8042 34.3565 90.4214 30.9239C91.4797 31.1447 92.5578 31.2564 93.6388 31.2572ZM39.3891 76.6527C42.1077 73.8741 45.6995 72.1155 49.5615 71.672C49.0767 75.5218 47.3243 79.1007 44.5805 81.8443C41.8368 84.588 38.2579 86.3404 34.4081 86.8251C34.852 82.9632 36.6107 79.3715 39.3891 76.6527ZM38.1525 46.9243C40.641 43.9379 44.081 41.8982 47.8952 41.1476C47.7191 45.0238 46.2579 48.7311 43.7418 51.685C41.2258 54.6389 37.7981 56.6713 33.9993 57.4617C34.1334 53.5767 35.5998 49.8561 38.1525 46.9243ZM30.953 17.7969C32.3577 15.3316 34.5187 13.3839 37.1163 12.2421C37.3757 15.0634 36.7484 17.8952 35.3219 20.3431C33.8954 22.7909 31.7408 24.7327 29.1584 25.8979C28.8712 23.0749 29.5004 20.2345 30.953 17.7969ZM16.218 25.3796C13.7528 23.9747 11.8052 21.8135 10.6635 19.2159C13.4847 18.9566 16.3165 19.5838 18.7643 21.0103C21.2121 22.4368 23.1539 24.5914 24.3191 27.1738C21.4961 27.4616 18.6555 26.8324 16.218 25.3796ZM18.3718 53.7162C15.3853 51.2278 13.3456 47.7878 12.595 43.9735C16.4712 44.1496 20.1786 45.6108 23.1325 48.1268C26.0864 50.6429 28.1188 54.0705 28.9093 57.8694C25.0242 57.7354 21.3036 56.2689 18.3718 53.7162ZM19.1294 81.8444C16.351 79.1256 14.5922 75.5339 14.1483 71.672C17.9981 72.1567 21.577 73.9091 24.3207 76.6527C27.0645 79.3964 28.8169 82.9753 29.3017 86.8251C25.4398 86.3814 21.8481 84.6228 19.1294 81.8444ZM86.4746 154.961L81.4425 161.226H35.1583L30.1261 154.961C22.0155 144.894 17.8677 132.208 18.4646 119.294H98.1361C98.7329 132.208 94.5852 144.894 86.4746 154.961ZM97.853 115.286H18.7476L19.4109 106.944H30.7482H30.753H30.7553H85.8453H85.8476H85.8525H97.1896L97.853 115.286ZM93.4682 48.1269C96.3999 45.5741 100.121 44.1076 104.006 43.9735C103.215 47.7724 101.183 51.2 98.229 53.7161C95.2751 56.2321 91.5677 57.6933 87.6915 57.8693C88.4421 54.0552 90.4818 50.6153 93.4682 48.1269ZM97.8364 21.0102C100.274 19.5578 103.114 18.9287 105.937 19.2161C104.772 21.7986 102.83 23.9532 100.383 25.3796C97.9347 26.806 95.1028 27.4332 92.2816 27.1737C93.4234 24.5761 95.3711 22.4151 97.8364 21.0102ZM81.2786 20.3431C79.8261 17.9055 79.197 15.065 79.4842 12.2421C82.0667 13.4072 84.2213 15.349 85.6478 17.7969C87.0743 20.2447 87.7015 23.0766 87.4422 25.8979C84.8444 24.7562 82.6833 22.8086 81.2786 20.3431ZM72.8588 51.6849C70.3061 48.7531 68.8396 45.0325 68.7054 41.1474C72.5043 41.9378 75.932 43.9702 78.448 46.9242C80.9641 49.8781 82.4253 53.5855 82.6012 57.4617C78.787 56.7111 75.3472 54.6714 72.8588 51.6849ZM72.0201 81.8442C69.2417 79.1255 67.483 75.5338 67.039 71.672C70.8888 72.1567 74.4677 73.9091 77.2115 76.6527C79.9552 79.3964 81.7076 82.9753 82.1924 86.8251C78.3305 86.3814 74.7389 84.6226 72.0201 81.8442ZM92.2799 76.6526C94.9985 73.8741 98.5903 72.1155 102.452 71.672C101.967 75.5218 100.215 79.1006 97.4713 81.8443C94.7275 84.588 91.1486 86.3404 87.2988 86.8251C87.7427 82.9632 89.5015 79.3713 92.2799 76.6526Z" fill="#121212" stroke="#F8F8F8" stroke-width="1.78129" mask="url(#path-1-inside-1_301_1493)"/>
</g>
<defs>
<clipPath id="clip0_301_1493">
<rect width="114.893" height="101.534" fill="white" transform="translate(0.408325 0.941528)"/>
</clipPath>
</defs>
</svg>
