<svg width="36" height="38" viewBox="0 0 36 38" fill="none" xmlns="http://www.w3.org/2000/svg">
<path d="M34.9612 1.12689L34.9612 1.12689C35.0955 1.26113 35.1709 1.4432 35.1709 1.63305C35.1709 10.2599 28.3425 17.3205 19.8068 17.6964V24.7592C23.1664 24.8829 26.433 25.9051 29.2653 27.7212M34.9612 1.12689L29.1459 27.9091M34.9612 1.12689C34.827 0.992648 34.6449 0.917231 34.4551 0.917231C26.5503 0.917231 19.9603 6.65015 18.623 14.1765C17.7628 12.4045 16.449 10.8856 14.8093 9.7778C12.9571 8.52635 10.7733 7.85647 8.5379 7.85401H8.53765C8.3478 7.85401 8.16573 7.92942 8.03149 8.06366C7.89725 8.19791 7.82183 8.37998 7.82183 8.56983L7.82183 8.57009C7.82532 11.4651 8.94763 14.2466 10.9542 16.3334C12.9112 18.3687 15.5617 19.5894 18.3751 19.7569M34.9612 1.12689L18.3751 19.7569M29.2653 27.7212C29.2656 27.7213 29.2658 27.7215 29.2661 27.7217L29.1459 27.9091M29.2653 27.7212C29.265 27.721 29.2646 27.7207 29.2643 27.7205L29.1459 27.9091M29.2653 27.7212C29.345 27.7714 29.414 27.8369 29.4684 27.9138C29.523 27.9911 29.5617 28.0785 29.5823 28.1708C29.6029 28.2632 29.605 28.3587 29.5885 28.4519C29.572 28.545 29.5371 28.634 29.486 28.7136C29.4349 28.7932 29.3685 28.8619 29.2906 28.9157C29.2128 28.9695 29.125 29.0073 29.0325 29.027C28.9399 29.0466 28.8443 29.0477 28.7514 29.0303C28.6588 29.0128 28.5706 28.9773 28.4918 28.9258M29.1459 27.9091C29.2011 27.9438 29.2489 27.989 29.2865 28.0423C29.3241 28.0955 29.3508 28.1557 29.365 28.2193C29.3792 28.283 29.3807 28.3488 29.3693 28.4129C29.3579 28.4771 29.3339 28.5384 29.2986 28.5933C29.2634 28.6481 29.2177 28.6955 29.164 28.7325C29.1104 28.7696 29.0499 28.7956 28.9862 28.8092C28.9224 28.8227 28.8566 28.8235 28.7925 28.8114C28.7285 28.7994 28.6674 28.7748 28.6129 28.739M28.4918 28.9258C28.4921 28.926 28.4924 28.9262 28.4927 28.9264L28.6129 28.739M28.4918 28.9258C28.4914 28.9255 28.491 28.9253 28.4907 28.9251L28.6129 28.739M28.4918 28.9258C25.6924 27.1306 22.4371 26.176 19.1117 26.175M28.6129 28.739C25.7742 26.9183 22.4723 25.9511 19.0998 25.9524M19.0998 25.9524L19.1039 26.175C19.1086 26.1749 19.1128 26.1747 19.1163 26.1744C19.1193 26.1742 19.1218 26.1739 19.1237 26.1737C19.127 26.1733 19.1301 26.1728 19.1282 26.1731L19.128 26.1731C19.127 26.1733 19.1225 26.1739 19.1171 26.1745C19.1155 26.1747 19.1137 26.1749 19.1117 26.175M19.0998 25.9524C19.0984 25.9524 19.097 25.9526 19.0956 25.9528C19.094 25.9531 19.0925 25.9533 19.0909 25.9533C19.0879 25.9533 19.085 25.9524 19.082 25.9524M19.0998 25.9524L19.0999 26.175C19.1039 26.175 19.1078 26.175 19.1117 26.175M19.1117 26.175C19.1061 26.1755 19.099 26.1759 19.0909 26.1759C19.0829 26.1759 19.0759 26.1755 19.0703 26.175M19.082 25.9524L19.0823 26.175C19.0822 26.175 19.0821 26.175 19.082 26.175M19.082 25.9524C18.3399 25.9533 17.5988 26.0011 16.8629 26.0953C16.8881 26.1668 16.9123 26.2386 16.9355 26.3105M19.082 25.9524V26.175M19.0703 26.175C19.0742 26.175 19.0781 26.175 19.082 26.175M19.0703 26.175C19.0677 26.1748 19.0653 26.1746 19.0633 26.1744C19.0604 26.174 19.0576 26.1736 19.0556 26.1733C19.0537 26.1731 19.0525 26.1729 19.0525 26.1729C19.051 26.1727 19.0546 26.1732 19.0588 26.1737C19.06 26.1739 19.0614 26.174 19.063 26.1742C19.0678 26.1746 19.0743 26.175 19.082 26.175M19.0703 26.175C18.3565 26.1765 17.6436 26.2217 16.9355 26.3105M16.9355 26.3105C17.5698 28.2787 17.451 30.4163 16.5957 32.3062C15.7025 34.2797 14.0764 35.8282 12.0617 36.6238C10.0469 37.4194 7.80159 37.3998 5.80104 36.569C3.8005 35.7383 2.20176 34.1616 1.34328 32.1728C0.484793 30.184 0.433948 27.9392 1.2015 25.9136C1.96906 23.8879 3.49477 22.2405 5.45565 21.32C7.41653 20.3995 9.65865 20.2782 11.7074 20.9818C13.7052 21.6679 15.3662 23.0859 16.3577 24.9466M16.9355 26.3105C16.8606 26.3199 16.7858 26.3298 16.711 26.3402C17.3425 28.2664 17.2309 30.3626 16.3928 32.2144C15.5235 34.1352 13.9409 35.6423 11.9799 36.4167C10.0189 37.1911 7.83356 37.172 5.88644 36.3634C3.93931 35.5548 2.38327 34.0203 1.54771 32.0846C0.712146 30.1489 0.662658 27.964 1.40972 25.9924C2.15678 24.0209 3.64175 22.4175 5.55027 21.5216C7.45878 20.6256 9.64104 20.5076 11.6351 21.1924C13.6291 21.8772 15.2783 23.3111 16.2337 25.1906C17.0163 25.0686 17.806 24.9966 18.5978 24.975V19.545C15.7626 19.4304 13.0814 18.2244 11.1147 16.1791C9.14795 14.1337 8.04791 11.4073 8.04449 8.56983L16.3577 24.9466M16.3577 24.9466C17.0264 24.8481 17.6998 24.7857 18.3751 24.7596V19.7569M16.3577 24.9466L18.3751 19.7569M18.5589 14.5651C17.7214 12.7033 16.381 11.1084 14.6847 9.9623C12.8692 8.73567 10.7287 8.07908 8.53765 8.07667L18.5589 14.5651ZM19.9223 15.1535C20.8014 8.18142 26.6004 2.71979 33.7211 2.36703C33.3683 9.48776 27.9066 15.2869 20.9344 16.1659L27.2768 9.82351C27.2773 9.8231 27.2777 9.8227 27.2781 9.8223C27.3456 9.75643 27.3993 9.67789 27.4364 9.59117L27.2316 9.50374L27.4364 9.59117C27.4736 9.50392 27.4931 9.41013 27.4938 9.31526C27.4945 9.22038 27.4763 9.12633 27.4403 9.03856C27.4044 8.95077 27.3513 8.87102 27.2842 8.80394C27.2171 8.73686 27.1374 8.68378 27.0496 8.64779C26.9618 8.6118 26.8677 8.59362 26.7729 8.5943C26.678 8.59498 26.5842 8.61452 26.497 8.65177C26.4102 8.6888 26.3317 8.74259 26.2658 8.81006C26.2654 8.81047 26.265 8.81088 26.2646 8.81129L19.9223 15.1535ZM15.4467 12.1521C17.0994 13.8047 18.1043 15.992 18.2847 18.3168C15.96 18.1364 13.7727 17.1315 12.12 15.4789C10.4673 13.8262 9.46239 11.6389 9.28199 9.31416C11.6068 9.49454 13.7941 10.4994 15.4467 12.1521ZM8.92728 35.8565C7.54719 35.8565 6.1981 35.4472 5.05059 34.6805C3.90301 33.9137 3.00858 32.8239 2.4804 31.5488C1.95222 30.2737 1.81402 28.8705 2.08327 27.5169C2.35253 26.1632 3.01714 24.9198 3.99307 23.9439C4.969 22.9679 6.21241 22.3033 7.56606 22.034C8.91972 21.7648 10.3228 21.903 11.5979 22.4311C12.8731 22.9593 13.9629 23.8537 14.7297 25.0013C15.4965 26.1488 15.9057 27.4979 15.9058 28.878C15.9037 30.7282 15.1678 32.5019 13.8595 33.8102C12.5512 35.1185 10.7775 35.8544 8.92728 35.8565Z" fill="#285A43" stroke="#285A43" stroke-width="0.445322"/>
<path d="M12.4804 28.7372H9.6434V25.3716C9.6434 25.1817 9.56798 24.9997 9.43374 24.8654C9.2995 24.7312 9.11743 24.6558 8.92758 24.6558C8.73773 24.6558 8.55566 24.7312 8.42141 24.8654C8.28717 24.9997 8.21176 25.1817 8.21176 25.3716V29.453C8.21176 29.6428 8.28717 29.8249 8.42141 29.9591C8.55566 30.0934 8.73773 30.1688 8.92758 30.1688H12.4804C12.6703 30.1688 12.8523 30.0934 12.9866 29.9591C13.1208 29.8249 13.1962 29.6428 13.1962 29.453C13.1962 29.2631 13.1208 29.0811 12.9866 28.9468C12.8523 28.8126 12.6703 28.7372 12.4804 28.7372Z" fill="#285A43" stroke="#285A43" stroke-width="0.445322"/>
</svg>

