<svg width="57" height="57" viewBox="0 0 57 57" fill="none" xmlns="http://www.w3.org/2000/svg">
<path d="M31.6023 32.6014C31.0946 31.6126 30.3408 30.7676 29.4102 30.1499C28.3446 29.4427 27.0945 29.0649 25.8156 29.0635H25.8154H25.3735C25.1836 29.0635 25.0016 29.139 24.8673 29.2732C24.7331 29.4074 24.6576 29.5895 24.6576 29.7794L24.6576 30.2213L24.6576 30.2215C24.6597 31.9362 25.3382 33.5808 26.5458 34.798C27.7015 35.963 29.2524 36.6466 30.8865 36.717V39.8967C28.8216 40.0168 26.821 40.6662 25.0778 41.7839C24.9981 41.8342 24.929 41.8997 24.8746 41.9767C24.82 42.054 24.7813 42.1413 24.7607 42.2337C24.7401 42.326 24.738 42.4215 24.7545 42.5147C24.7711 42.6079 24.8059 42.6968 24.857 42.7764C24.9082 42.8561 24.9746 42.9248 25.0524 42.9785C25.1303 43.0323 25.218 43.0702 25.3106 43.0898C25.4031 43.1095 25.4987 43.1106 25.5917 43.0931C25.6842 43.0757 25.7723 43.0402 25.8511 42.9887C27.5681 41.8899 29.5638 41.306 31.6023 41.306C33.6408 41.306 35.6366 41.8899 37.3535 42.9887C37.4323 43.0402 37.5205 43.0757 37.613 43.0931C37.7059 43.1106 37.8015 43.1095 37.894 43.0898C37.9866 43.0702 38.0743 43.0323 38.1522 42.9785C38.23 42.9248 38.2965 42.8561 38.3476 42.7764C38.3987 42.6968 38.4336 42.6079 38.4501 42.5147C38.4666 42.4215 38.4645 42.326 38.4439 42.2337C38.4233 42.1413 38.3846 42.054 38.33 41.9767C38.2756 41.8997 38.2066 41.8342 38.1269 41.784C36.3837 40.6662 34.383 40.0168 32.3181 39.8967V36.717C33.9522 36.6466 35.5031 35.963 36.6588 34.7981C37.8664 33.5808 38.5449 31.9362 38.5469 30.2215V30.2213V29.7794C38.5469 29.5895 38.4715 29.4074 38.3373 29.2732C38.203 29.139 38.021 29.0635 37.8311 29.0635L37.3892 29.0635L37.389 29.0635C36.1101 29.0649 34.8599 29.4427 33.7944 30.1499C32.8638 30.7676 32.11 31.6126 31.6023 32.6014ZM29.3996 31.9822C30.2832 32.8658 30.8079 34.0421 30.8784 35.2844C29.6362 35.2139 28.4598 34.6892 27.5762 33.8055C26.6926 32.9219 26.1678 31.7456 26.0974 30.5033C27.3396 30.5738 28.5159 31.0985 29.3996 31.9822ZM33.805 31.9822C34.6887 31.0986 35.865 30.5738 37.1072 30.5033C37.0368 31.7456 36.512 32.9219 35.6284 33.8055C34.7448 34.6892 33.5684 35.2139 32.3262 35.2844C32.3967 34.0421 32.9214 32.8658 33.805 31.9822Z" fill="#285A43" stroke="#285A43" stroke-width="0.445322"/>
<path d="M31.1751 15.5047L31.3079 15.6834L31.1751 15.5047L20.0249 23.7981V13.7158C20.0249 12.9736 19.7301 12.2619 19.2054 11.7372C18.6806 11.2124 17.9689 10.9176 17.2268 10.9176C16.4847 10.9176 15.7729 11.2124 15.2482 11.7372C14.7234 12.2619 14.4286 12.9736 14.4286 13.7158V28.9777C13.7156 29.4491 13.1343 30.0954 12.7407 30.8556C12.3279 31.6527 12.1366 32.5458 12.1866 33.442L12.1866 33.4421C12.2574 34.7045 12.7975 35.8949 13.701 36.7795C14.6044 37.6641 15.8058 38.1791 17.0694 38.2233L17.0707 38.2233C17.1233 38.2249 17.1757 38.2257 17.2286 38.2257C17.3846 38.2257 17.5405 38.2186 17.6958 38.2043V46.1264C17.6958 46.3162 17.7712 46.4983 17.9054 46.6326L18.0629 46.4751L17.9054 46.6326C18.0397 46.7668 18.2217 46.8422 18.4116 46.8422H44.7929C44.9827 46.8422 45.1648 46.7668 45.299 46.6326C45.4333 46.4983 45.5087 46.3162 45.5087 46.1264V25.8902C45.5087 25.7786 45.4826 25.6685 45.4325 25.5688C45.3824 25.4691 45.3096 25.3824 45.2201 25.3158L32.0295 15.5047L31.8966 15.6834L32.0295 15.5047C31.906 15.4129 31.7562 15.3633 31.6023 15.3633C31.4484 15.3633 31.2985 15.4129 31.1751 15.5047ZM15.4889 30.0082L15.4892 30.008C15.6015 29.9463 15.6952 29.8555 15.7605 29.7451C15.8258 29.6348 15.8602 29.5089 15.8603 29.3807V13.7157C15.8603 13.3533 16.0042 13.0057 16.2605 12.7495C16.5168 12.4932 16.8644 12.3492 17.2268 12.3492C17.5892 12.3492 17.9368 12.4932 18.193 12.7495C18.4493 13.0057 18.5933 13.3533 18.5933 13.7157V29.3807C18.5933 29.5089 18.6278 29.6348 18.693 29.7451C18.7583 29.8555 18.852 29.9463 18.9644 30.008L18.9646 30.0082C19.677 30.3987 20.2371 31.0177 20.5546 31.7655C20.8721 32.5133 20.9286 33.3462 20.7148 34.13C20.501 34.9137 20.0295 35.6027 19.3763 36.0857C18.723 36.5687 17.9262 36.8176 17.1142 36.7923C16.3215 36.7676 15.5589 36.4829 14.9439 35.9821C14.3289 35.4813 13.8956 34.7922 13.7109 34.0209C13.5261 33.2496 13.6001 32.4389 13.9214 31.7138C14.2427 30.9887 14.7935 30.3894 15.4889 30.0082ZM44.0771 45.4106H19.1274V37.856C19.9494 37.5216 20.6697 36.976 21.2146 36.2734C21.7914 35.5296 22.1488 34.6394 22.2465 33.7033C22.3441 32.7672 22.1782 31.8224 21.7673 30.9756C21.3744 30.1659 20.7726 29.4767 20.025 28.9784V25.5824L31.6023 16.9712L44.0771 26.2499L44.0771 45.4106Z" fill="#285A43" stroke="#285A43" stroke-width="0.445322"/>
<path d="M17.9426 30.7799V14.8296C17.9426 14.6397 17.8672 14.4577 17.7329 14.3234C17.5987 14.1892 17.4166 14.1138 17.2268 14.1138C17.0369 14.1138 16.8548 14.1892 16.7206 14.3234C16.5864 14.4577 16.5109 14.6397 16.5109 14.8296V30.7799C15.9711 30.9385 15.4974 31.2725 15.1664 31.7317C14.8 32.2399 14.6345 32.8657 14.7015 33.4886C14.7686 34.1115 15.0635 34.6877 15.5297 35.1063C15.9958 35.525 16.6002 35.7566 17.2268 35.7566C17.8533 35.7566 18.4577 35.525 18.9239 35.1063C19.39 34.6877 19.6849 34.1115 19.752 33.4886C19.819 32.8657 19.6535 32.2399 19.2871 31.7317C18.9562 31.2725 18.4824 30.9385 17.9426 30.7799ZM16.203 33.6397L15.9973 33.7249L16.203 33.6397C16.1192 33.4373 16.0972 33.2145 16.14 32.9995C16.1828 32.7846 16.2883 32.5871 16.4433 32.4321C16.5983 32.2772 16.7957 32.1716 17.0107 32.1289C17.2256 32.0861 17.4484 32.1081 17.6509 32.192C17.8534 32.2758 18.0264 32.4179 18.1482 32.6001C18.2699 32.7823 18.3349 32.9966 18.3349 33.2157L18.5576 33.2157L18.3349 33.2155C18.3346 33.5093 18.2177 33.7911 18.0099 33.9989C17.8021 34.2066 17.5204 34.3235 17.2265 34.3238C17.0074 34.3238 16.7933 34.2588 16.6111 34.1371C16.4289 34.0153 16.2869 33.8422 16.203 33.6397Z" fill="#285A43" stroke="#285A43" stroke-width="0.445322"/>
<path d="M29.1131 27.2718C29.1134 27.4612 29.1887 27.6428 29.3227 27.7768C29.457 27.9111 29.639 27.9865 29.8289 27.9865C30.0187 27.9865 30.2008 27.9111 30.335 27.7768C30.4693 27.6426 30.5447 27.4605 30.5447 27.2707H30.5448L30.5446 27.2651C30.5428 27.1928 30.569 27.1226 30.6178 27.0692L30.6247 27.0617L30.6308 27.0536C30.8594 26.7521 30.9831 26.3841 30.9831 26.0057C30.9831 25.6273 30.8594 25.2594 30.6308 24.9578L30.6263 24.9519L30.6214 24.9463C30.572 24.8893 30.5447 24.8165 30.5447 24.741C30.5447 24.6656 30.5719 24.5927 30.6214 24.5358L30.6216 24.536L30.6292 24.5262C30.862 24.2257 30.9867 23.8556 30.9831 23.4756M29.1131 27.2718C29.113 27.2714 29.113 27.271 29.113 27.2707H29.3357L29.1131 27.273C29.1131 27.2726 29.1131 27.2722 29.1131 27.2718ZM29.1131 27.2718C29.1094 26.8917 29.234 26.5215 29.4667 26.2209L29.4744 26.211L29.4746 26.2112C29.5241 26.1542 29.5514 26.0812 29.5514 26.0057C29.5514 25.9302 29.5241 25.8572 29.4746 25.8002L29.4698 25.7946L29.4653 25.7887C29.2367 25.4872 29.113 25.1193 29.113 24.7409C29.1131 24.3626 29.2368 23.9946 29.4655 23.6931L29.4716 23.685L29.4784 23.6776C29.5271 23.6243 29.5532 23.5543 29.5515 23.4822L29.5513 23.4767H29.5514C29.5514 23.2869 29.6268 23.1048 29.7611 22.9705C29.8953 22.8363 30.0774 22.7609 30.2672 22.7609C30.4571 22.7609 30.6392 22.8363 30.7734 22.9705C30.9074 23.1045 30.9828 23.2861 30.9831 23.4756M30.9831 23.4756C30.9831 23.4759 30.9831 23.4763 30.9831 23.4767H30.7604L30.983 23.4744C30.983 23.4748 30.9831 23.4752 30.9831 23.4756Z" fill="#285A43" stroke="#285A43" stroke-width="0.445322"/>
<path d="M32.2216 27.2718C32.2219 27.4612 32.2973 27.6428 32.4313 27.7768C32.5655 27.9111 32.7476 27.9865 32.9374 27.9865C33.1273 27.9865 33.3093 27.9111 33.4436 27.7768C33.5778 27.6426 33.6532 27.4605 33.6532 27.2707H33.6533L33.6532 27.2651C33.6514 27.1928 33.6776 27.1226 33.7263 27.0692L33.7332 27.0617L33.7393 27.0536C33.9679 26.7521 34.0916 26.3841 34.0916 26.0057C34.0916 25.6273 33.9679 25.2593 33.7393 24.9578L33.7348 24.9519L33.73 24.9463C33.6805 24.8893 33.6533 24.8165 33.6532 24.741C33.6532 24.6656 33.6805 24.5927 33.7299 24.5358L33.7302 24.536L33.7378 24.5262C33.9706 24.2257 34.0952 23.8556 34.0916 23.4756M32.2216 27.2718C32.2216 27.2714 32.2216 27.271 32.2216 27.2707H32.4443L32.2216 27.273C32.2216 27.2726 32.2216 27.2722 32.2216 27.2718ZM32.2216 27.2718C32.2179 26.8917 32.3425 26.5215 32.5753 26.2209L32.5829 26.211L32.5832 26.2112C32.6327 26.1542 32.66 26.0812 32.66 26.0057C32.66 25.9302 32.6327 25.8572 32.5832 25.8002L32.5783 25.7946L32.5739 25.7887C32.3453 25.4872 32.2216 25.1193 32.2216 24.7409C32.2216 24.3626 32.3454 23.9946 32.574 23.6931L32.5801 23.685L32.587 23.6775C32.6356 23.6243 32.6618 23.5543 32.66 23.4822L32.6599 23.4767H32.66C32.66 23.2869 32.7354 23.1048 32.8696 22.9705C33.0039 22.8363 33.1859 22.7609 33.3758 22.7609C33.5656 22.7609 33.7477 22.8363 33.882 22.9705C34.0159 23.1045 34.0913 23.2861 34.0916 23.4756M34.0916 23.4756C34.0916 23.4759 34.0916 23.4763 34.0916 23.4767H33.8689L34.0916 23.4744C34.0916 23.4748 34.0916 23.4752 34.0916 23.4756Z" fill="#285A43" stroke="#285A43" stroke-width="0.445322"/>
</svg>
