<svg width="57" height="57" viewBox="0 0 57 57" fill="none" xmlns="http://www.w3.org/2000/svg">
<path d="M29.5411 31.673V46.3178C29.541 46.7013 29.4329 47.0771 29.2291 47.402C29.0253 47.7268 28.734 47.9877 28.3887 48.1545C28.0433 48.3214 27.658 48.3875 27.2768 48.3453C26.8957 48.3032 26.5342 48.1545 26.2337 47.9163C25.3165 47.1927 24.5758 46.2701 24.0675 45.2182C23.5592 44.1664 23.2967 43.0128 23.2997 41.8446V41.8448H23.5223L23.2997 41.8442L29.5411 31.673ZM29.5411 31.673L39.6076 41.7395C39.6076 41.7395 39.6077 41.7396 39.6078 41.7397C39.7959 41.9294 40.0197 42.0801 40.2663 42.183C40.513 42.286 40.7776 42.3392 41.0449 42.3394H41.0454C41.2757 42.3392 41.5042 42.3003 41.7216 42.2243C42.0847 42.0995 42.405 41.8742 42.645 41.5744C42.885 41.2747 43.0349 40.913 43.0773 40.5314C43.2142 39.3713 43.0856 38.1954 42.7012 37.0923C42.3168 35.989 41.6866 34.9875 40.8582 34.1635L32.0989 25.404L29.6475 22.9528V14.1592V14.159C29.6461 12.8972 29.1443 11.6875 28.2521 10.7953C27.3599 9.90311 26.1502 9.40123 24.8885 9.39978H24.8882H23.909C23.7192 9.39978 23.5371 9.47519 23.4029 9.60943C23.2686 9.74368 23.1932 9.92575 23.1932 10.1156V20.8322L16.256 13.895C16.1896 13.8285 16.1106 13.7757 16.0238 13.7397C15.9369 13.7037 15.8438 13.6852 15.7498 13.6852C15.6558 13.6852 15.5627 13.7037 15.4758 13.7397C15.389 13.7757 15.3101 13.8284 15.2436 13.8949C15.2436 13.8949 15.2436 13.8949 15.2436 13.895L14.5513 14.5872L14.5511 14.5874C13.66 15.4806 13.1595 16.6908 13.1595 17.9526C13.1595 19.2143 13.66 20.4245 14.5511 21.3177L14.5513 21.3179L22.5088 29.2754C22.5088 29.2754 22.5088 29.2755 22.5089 29.2755L29.5411 31.673ZM23.2997 29.9141C23.335 29.9369 23.3706 29.9592 23.4066 29.9811L23.5223 29.7909H23.2997V29.9141ZM28.2159 14.1595V21.5212L28.2037 21.5089L28.2035 21.5087C27.6997 21.0063 27.047 20.6802 26.3428 20.579C25.7593 20.4952 25.1664 20.5695 24.6248 20.791V10.8314L24.8879 10.8314C24.888 10.8314 24.888 10.8314 24.888 10.8314C25.7703 10.8325 26.6162 11.1834 27.2401 11.8073C27.864 12.4312 28.2149 13.2771 28.2159 14.1595ZM23.2012 22.8648L23.2012 22.8648C23.3354 22.999 23.5175 23.0744 23.7073 23.0745C23.8971 23.0745 24.0792 22.9991 24.2134 22.8649L24.2135 22.8649L24.5571 22.5214L24.5676 22.5108C24.9162 22.1686 25.3853 21.9767 25.8742 21.9767C26.3681 21.9767 26.8418 22.1726 27.1915 22.5214L30.5803 25.9102L28.2273 28.2633C27.6032 28.8873 26.7568 29.2379 25.8742 29.2379C24.9917 29.2379 24.1453 28.8873 23.5212 28.2633L15.5638 20.3059C14.9406 19.6813 14.5906 18.835 14.5906 17.9527C14.5906 17.0703 14.9406 16.224 15.5638 15.5994L15.7498 15.4135L23.2012 22.8648ZM27.1231 46.7944L27.1227 46.7941C26.3751 46.2044 25.7714 45.4524 25.3571 44.5951C24.9428 43.7378 24.7288 42.7975 24.7313 41.8454V41.8448V30.5312C25.8246 30.8002 26.981 30.6748 27.9944 30.1723H28.0404L28.1094 30.2413L28.1094 46.3178C28.1094 46.4321 28.0772 46.5442 28.0164 46.6411C27.9556 46.7379 27.8687 46.8157 27.7658 46.8655C27.6628 46.9152 27.5479 46.935 27.4342 46.9224C27.3205 46.9098 27.2127 46.8655 27.1231 46.7944ZM41.655 40.3669L41.655 40.3675C41.6418 40.4811 41.597 40.5887 41.5255 40.678C41.454 40.7673 41.3588 40.8346 41.2508 40.8722C41.1428 40.9098 41.0264 40.9162 40.915 40.8907C40.8035 40.8652 40.7015 40.8088 40.6206 40.7279L40.4631 40.8853L40.6206 40.7279L29.204 29.3113L31.5927 26.9225L39.8464 35.1762L39.8468 35.1766C40.5219 35.8481 41.0354 36.6643 41.3487 37.5635C41.6619 38.4627 41.7667 39.4213 41.655 40.3669Z" fill="#285A43" stroke="#285A43" stroke-width="0.445322"/>
<path d="M27.9589 25.9101C27.9589 25.4278 27.7917 24.9605 27.4857 24.5878C27.1797 24.2149 26.754 23.9597 26.2809 23.8656C25.8079 23.7715 25.3168 23.8444 24.8915 24.0717C24.4661 24.2991 24.1327 24.6669 23.9482 25.1125C23.7636 25.5581 23.7392 26.0539 23.8793 26.5155C24.0193 26.977 24.315 27.3758 24.7161 27.6437C25.1171 27.9117 25.5986 28.0323 26.0786 27.985C26.5585 27.9377 27.0071 27.7255 27.3481 27.3846C27.5424 27.1914 27.6963 26.9615 27.8012 26.7084C27.906 26.4553 27.9596 26.184 27.9589 25.9101ZM27.9589 25.9101C27.9589 25.9099 27.9589 25.9098 27.9589 25.9097L27.7363 25.9103L27.9589 25.9103C27.9589 25.9102 27.9589 25.9101 27.9589 25.9101ZM26.3364 26.3716L26.336 26.372C26.2291 26.4789 26.0885 26.5454 25.9382 26.5602C25.7878 26.575 25.6369 26.5372 25.5113 26.4532C25.3857 26.3693 25.293 26.2444 25.2492 26.0998C25.2053 25.9552 25.213 25.7998 25.2708 25.6602C25.3286 25.5206 25.4331 25.4054 25.5664 25.3342C25.6996 25.263 25.8535 25.2402 26.0017 25.2697C26.1499 25.2992 26.2832 25.3791 26.3791 25.4959C26.4749 25.6127 26.5273 25.7592 26.5273 25.9103L26.5273 25.9109C26.5275 25.9965 26.5108 26.0813 26.478 26.1604C26.4452 26.2395 26.3971 26.3112 26.3364 26.3716Z" fill="#285A43" stroke="#285A43" stroke-width="0.445322"/>
</svg>
