<svg width="12" height="12" viewBox="0 0 12 12" fill="none" xmlns="http://www.w3.org/2000/svg">
<path d="M4.54796 6.55749C4.42179 6.55749 4.31595 6.51474 4.23045 6.42924C4.14524 6.34403 4.10264 6.23834 4.10264 6.11217C4.10264 5.98599 4.14524 5.88016 4.23045 5.79465C4.31595 5.70945 4.42179 5.66685 4.54796 5.66685C4.67414 5.66685 4.77998 5.70945 4.86548 5.79465C4.95068 5.88016 4.99328 5.98599 4.99328 6.11217C4.99328 6.23834 4.95068 6.34403 4.86548 6.42924C4.77998 6.51474 4.67414 6.55749 4.54796 6.55749ZM6.32925 6.55749C6.20308 6.55749 6.09739 6.51474 6.01218 6.42924C5.92668 6.34403 5.88393 6.23834 5.88393 6.11217C5.88393 5.98599 5.92668 5.88016 6.01218 5.79465C6.09739 5.70945 6.20308 5.66685 6.32925 5.66685C6.45543 5.66685 6.56126 5.70945 6.64677 5.79465C6.73197 5.88016 6.77457 5.98599 6.77457 6.11217C6.77457 6.23834 6.73197 6.34403 6.64677 6.42924C6.56126 6.51474 6.45543 6.55749 6.32925 6.55749ZM8.11054 6.55749C7.98437 6.55749 7.87868 6.51474 7.79347 6.42924C7.70797 6.34403 7.66522 6.23834 7.66522 6.11217C7.66522 5.98599 7.70797 5.88016 7.79347 5.79465C7.87868 5.70945 7.98437 5.66685 8.11054 5.66685C8.23672 5.66685 8.34241 5.70945 8.42761 5.79465C8.51311 5.88016 8.55586 5.98599 8.55586 6.11217C8.55586 6.23834 8.51311 6.34403 8.42761 6.42924C8.34241 6.51474 8.23672 6.55749 8.11054 6.55749ZM3.21199 10.1201C2.96707 10.1201 2.75732 10.0329 2.58275 9.85867C2.40848 9.6841 2.32135 9.47435 2.32135 9.22943V2.99491C2.32135 2.74999 2.40848 2.54039 2.58275 2.36612C2.75732 2.19155 2.96707 2.10427 3.21199 2.10427H3.65732V1.21362H4.54796V2.10427H8.11054V1.21362H9.00119V2.10427H9.44651C9.69144 2.10427 9.90118 2.19155 10.0757 2.36612C10.25 2.54039 10.3372 2.74999 10.3372 2.99491V9.22943C10.3372 9.47435 10.25 9.6841 10.0757 9.85867C9.90118 10.0329 9.69144 10.1201 9.44651 10.1201H3.21199ZM3.21199 9.22943H9.44651V4.7762H3.21199V9.22943ZM3.21199 3.88556H9.44651V2.99491H3.21199V3.88556Z" fill="#121212" fill-opacity="0.8"/>
</svg>
