<svg width="26" height="26" viewBox="0 0 26 26" fill="none" xmlns="http://www.w3.org/2000/svg">
<circle cx="12.9562" cy="13.1661" r="12.469" stroke="white" stroke-width="0.445322"/>
<g clip-path="url(#clip0_301_1579)">
<path d="M16.7443 7.14486L16.7443 7.14488C16.8318 7.15636 16.9122 7.19929 16.9704 7.26568C17.0286 7.33205 17.0607 7.41734 17.0607 7.50562C17.0607 7.50563 17.0607 7.50564 17.0607 7.50565V9.55113C17.0607 9.64759 17.0224 9.74009 16.9542 9.80829C16.886 9.8765 16.7935 9.91481 16.697 9.91481H15.4863C15.1288 9.91481 14.9463 9.97564 14.8479 10.0849C14.7478 10.196 14.7171 10.3751 14.7171 10.6644V11.7608H16.6174C16.6174 11.7608 16.6174 11.7608 16.6174 11.7608C16.6692 11.7608 16.7204 11.7718 16.7675 11.7932C16.8147 11.8145 16.8567 11.8457 16.8909 11.8846C16.925 11.9235 16.9505 11.9692 16.9656 12.0188C16.9806 12.0683 16.9849 12.1205 16.9782 12.1718M16.7443 7.14486L16.912 12.1631M16.7443 7.14486L16.7427 7.14469C16.1413 7.0809 15.537 7.04985 14.9322 7.05169M16.7443 7.14486L14.9322 7.05169M16.9782 12.1718L16.912 12.1631M16.9782 12.1718L16.9782 12.1716L16.912 12.1631M16.9782 12.1718L16.6831 14.4576L16.6831 14.4578C16.6716 14.5453 16.6287 14.6257 16.5623 14.6839C16.4959 14.7421 16.4106 14.7742 16.3223 14.7742V14.7074M16.912 12.1631L16.6169 14.4491C16.6075 14.5206 16.5724 14.5862 16.5182 14.6337C16.4641 14.6812 16.3944 14.7074 16.3223 14.7074M16.3223 14.7074L16.3223 14.7742M16.3223 14.7074H14.7171V14.7742M16.3223 14.7742L14.9323 7.11849C12.9355 7.11849 11.6946 8.39033 11.6946 10.4376V11.7608H11.6278M16.3223 14.7742H14.7171M16.3223 14.7742L14.9322 7.05169M14.7171 14.7742H14.6503V19.2912C14.6503 19.37 14.619 19.4455 14.5634 19.5012C14.5077 19.5568 14.4322 19.5881 14.3534 19.5881H11.9914C11.9127 19.5881 11.8372 19.5568 11.7815 19.5012C11.7258 19.4455 11.6946 19.37 11.6946 19.2912V14.7742H11.6278M14.7171 14.7742V19.2912C14.7171 19.3877 14.6788 19.4802 14.6106 19.5484C14.5424 19.6166 14.4499 19.6549 14.3534 19.6549H11.9914C11.895 19.6549 11.8025 19.6166 11.7343 19.5484C11.6661 19.4802 11.6278 19.3877 11.6278 19.2912V14.7742M11.6278 14.7742V14.7074H10.0172C9.93843 14.7074 9.86292 14.6761 9.80725 14.6204C9.75157 14.5647 9.72029 14.4892 9.72029 14.4105V12.1245C9.72029 12.0458 9.75157 11.9703 9.80725 11.9146C9.86292 11.8589 9.93843 11.8276 10.0172 11.8276H11.6278V11.7608M11.6278 14.7742H10.0172C9.92072 14.7742 9.82822 14.7359 9.76001 14.6677C9.69181 14.5994 9.65349 14.5069 9.65349 14.4105V12.1245C9.65349 12.028 9.69181 11.9355 9.76001 11.8673C9.82822 11.7991 9.92072 11.7608 10.0172 11.7608H11.6278M11.6278 11.7608V10.4376C11.6278 9.40046 11.9423 8.55257 12.5168 7.96367C13.0915 7.37461 13.9194 7.05171 14.9322 7.05169M14.3528 12.4888H14.3527C14.2564 12.4886 14.1641 12.4502 14.096 12.382C14.028 12.3138 13.9897 12.2214 13.9897 12.1251V10.6644C13.9897 10.359 14.0266 9.98841 14.2364 9.69371C14.4496 9.39435 14.8305 9.18746 15.4857 9.18745L14.3528 12.4888ZM14.3528 12.4888H16.2042L16.0024 14.0474H14.3534C14.257 14.0474 14.1645 14.0857 14.0963 14.1539C14.0281 14.2221 13.9897 14.3146 13.9897 14.4111V18.927H12.3551V14.4111C12.3551 14.3146 12.3168 14.2221 12.2486 14.1539C12.1804 14.0857 12.0879 14.0474 11.9914 14.0474H10.3814V12.4888H11.9914C12.0879 12.4888 12.1804 12.4505 12.2486 12.3823C12.3168 12.3141 12.3551 12.2215 12.3551 12.1251V10.4376C12.3551 9.59714 12.5984 8.93413 13.0375 8.48152C13.4764 8.02917 14.1185 7.77905 14.9323 7.77905C15.4934 7.77905 16.0033 7.8078 16.3333 7.83481V9.1869L15.4857 9.18745L14.3528 12.4888ZM14.7171 11.8276H14.6503V11.7608L14.7171 11.8276Z" fill="white" stroke="white" stroke-width="0.133597"/>
</g>
<defs>
<clipPath id="clip0_301_1579">
<rect width="14.2503" height="14.2503" fill="white" transform="translate(6.05379 6.26343)"/>
</clipPath>
</defs>
</svg>
