<svg width="11" height="11" viewBox="0 0 11 11" fill="none" xmlns="http://www.w3.org/2000/svg">
<path d="M4.55038 4.30532V6.6878C4.55038 6.86592 4.62831 6.99581 4.78418 7.07745C4.94004 7.1591 5.09219 7.15167 5.24063 7.05519L7.08872 5.87508C7.22974 5.79344 7.30025 5.66727 7.30025 5.49656C7.30025 5.32585 7.22974 5.19968 7.08872 5.11803L5.24063 3.93793C5.09219 3.84144 4.94004 3.83402 4.78418 3.91566C4.62831 3.99731 4.55038 4.12719 4.55038 4.30532ZM5.66369 9.94978C5.04766 9.94978 4.46874 9.83281 3.92693 9.59887C3.38512 9.36522 2.91382 9.04801 2.51303 8.64721C2.11224 8.24642 1.79502 7.77512 1.56138 7.23332C1.32744 6.69151 1.21046 6.11259 1.21046 5.49656C1.21046 4.88053 1.32744 4.30161 1.56138 3.7598C1.79502 3.21799 2.11224 2.74669 2.51303 2.3459C2.91382 1.94511 3.38512 1.62775 3.92693 1.3938C4.46874 1.16016 5.04766 1.04333 5.66369 1.04333C6.27972 1.04333 6.85864 1.16016 7.40044 1.3938C7.94225 1.62775 8.41355 1.94511 8.81434 2.3459C9.21513 2.74669 9.53235 3.21799 9.766 3.7598C9.99994 4.30161 10.1169 4.88053 10.1169 5.49656C10.1169 6.11259 9.99994 6.69151 9.766 7.23332C9.53235 7.77512 9.21513 8.24642 8.81434 8.64721C8.41355 9.04801 7.94225 9.36522 7.40044 9.59887C6.85864 9.83281 6.27972 9.94978 5.66369 9.94978ZM5.66369 9.05914C6.65082 9.05914 7.49144 8.71223 8.18555 8.01842C8.87936 7.32431 9.22627 6.48369 9.22627 5.49656C9.22627 4.50943 8.87936 3.66881 8.18555 2.9747C7.49144 2.28089 6.65082 1.93398 5.66369 1.93398C4.67656 1.93398 3.83609 2.28089 3.14227 2.9747C2.44816 3.66881 2.10111 4.50943 2.10111 5.49656C2.10111 6.48369 2.44816 7.32431 3.14227 8.01842C3.83609 8.71223 4.67656 9.05914 5.66369 9.05914Z" fill="white"/>
</svg>
