<svg width="27" height="26" viewBox="0 0 27 26" fill="none" xmlns="http://www.w3.org/2000/svg">
<circle cx="13.5097" cy="13.1661" r="12.469" stroke="white" stroke-width="0.445322"/>
<path d="M10.7931 7.45093H15.7807C17.6807 7.45093 19.2245 8.99471 19.2245 10.8948V15.8824C19.2245 16.7957 18.8617 17.6717 18.2159 18.3175C17.57 18.9634 16.6941 19.3262 15.7807 19.3262H10.7931C8.89305 19.3262 7.34927 17.7824 7.34927 15.8824V10.8948C7.34927 9.98139 7.7121 9.10544 8.35794 8.4596C9.00378 7.81376 9.87973 7.45093 10.7931 7.45093ZM10.6743 8.63845C10.1074 8.63845 9.56373 8.86366 9.16287 9.26453C8.762 9.6654 8.53679 10.2091 8.53679 10.776V16.0011C8.53679 17.1827 9.49275 18.1387 10.6743 18.1387H15.8995C16.4664 18.1387 17.0101 17.9135 17.4109 17.5126C17.8118 17.1117 18.037 16.568 18.037 16.0011V10.776C18.037 9.59441 17.081 8.63845 15.8995 8.63845H10.6743ZM16.4042 9.5291C16.601 9.5291 16.7898 9.6073 16.929 9.74649C17.0682 9.88568 17.1464 10.0745 17.1464 10.2713C17.1464 10.4681 17.0682 10.6569 16.929 10.7961C16.7898 10.9353 16.601 11.0135 16.4042 11.0135C16.2073 11.0135 16.0185 10.9353 15.8793 10.7961C15.7401 10.6569 15.662 10.4681 15.662 10.2713C15.662 10.0745 15.7401 9.88568 15.8793 9.74649C16.0185 9.6073 16.2073 9.5291 16.4042 9.5291ZM13.2869 10.4197C14.0743 10.4197 14.8294 10.7325 15.3862 11.2893C15.9429 11.8461 16.2557 12.6012 16.2557 13.3886C16.2557 14.1759 15.9429 14.9311 15.3862 15.4878C14.8294 16.0446 14.0743 16.3574 13.2869 16.3574C12.4995 16.3574 11.7444 16.0446 11.1876 15.4878C10.6309 14.9311 10.3181 14.1759 10.3181 13.3886C10.3181 12.6012 10.6309 11.8461 11.1876 11.2893C11.7444 10.7325 12.4995 10.4197 13.2869 10.4197ZM13.2869 11.6073C12.8145 11.6073 12.3614 11.7949 12.0273 12.129C11.6933 12.4631 11.5056 12.9161 11.5056 13.3886C11.5056 13.861 11.6933 14.3141 12.0273 14.6481C12.3614 14.9822 12.8145 15.1698 13.2869 15.1698C13.7593 15.1698 14.2124 14.9822 14.5465 14.6481C14.8805 14.3141 15.0682 13.861 15.0682 13.3886C15.0682 12.9161 14.8805 12.4631 14.5465 12.129C14.2124 11.7949 13.7593 11.6073 13.2869 11.6073Z" fill="white"/>
</svg>
