<svg width="27" height="26" viewBox="0 0 27 26" fill="none" xmlns="http://www.w3.org/2000/svg">
<circle cx="13.4028" cy="13.1661" r="12.469" stroke="white" stroke-width="0.445322"/>
<path d="M20.0083 8.64428C19.4145 8.93523 18.8326 9.05339 18.227 9.23211C17.5614 8.481 16.5745 8.43943 15.6263 8.79451C14.678 9.14958 14.057 10.0177 14.0706 11.0134V11.6072C12.1439 11.6564 10.4279 10.7789 9.32052 9.23211C9.32052 9.23211 6.8374 13.6455 11.6956 15.7635C10.584 16.5039 9.47549 17.0033 8.133 16.951C10.0972 18.0216 12.2377 18.3897 14.0908 17.8518C16.2165 17.2343 17.9633 15.6412 18.6337 13.2549C18.8337 12.5291 18.933 11.7793 18.9288 11.0265C18.9276 10.8786 19.8254 9.38055 20.0083 8.64369V8.64428Z" stroke="white" stroke-width="0.890645" stroke-linecap="round" stroke-linejoin="round"/>
</svg>
